<?xml version="1.0" standalone="no"?>
<!DOCTYPE svg PUBLIC "-//W3C//DTD SVG 20010904//EN"
 "http://www.w3.org/TR/2001/REC-SVG-20010904/DTD/svg10.dtd">
<svg version="1.0" xmlns="http://www.w3.org/2000/svg"
 width="617.000000pt" height="167.000000pt" viewBox="0 0 617.000000 167.000000"
 preserveAspectRatio="xMidYMid meet">
<metadata>
Created by potrace 1.16, written by Peter Selinger 2001-2019
</metadata>
<g transform="translate(0.000000,167.000000) scale(0.100000,-0.100000)"
fill="#000000" stroke="none">
<path d="M435 1294 c36 -47 44 -74 23 -74 -7 0 -31 -5 -53 -11 l-39 -11 29
-15 c17 -9 37 -22 46 -30 13 -11 26 -12 60 -4 75 18 77 17 71 -37 -6 -63 13
-129 48 -164 48 -48 90 -30 90 40 0 50 -64 162 -127 223 -57 55 -156 129 -174
129 -5 0 7 -21 26 -46z"/>
<path d="M1662 1295 c-83 -56 -116 -88 -161 -155 -49 -74 -61 -103 -61 -153 0
-70 36 -88 82 -39 37 37 48 73 48 148 0 71 1 72 73 55 33 -8 44 -6 74 15 20
13 43 24 52 24 28 1 -9 17 -56 25 -24 4 -43 10 -43 15 0 4 16 31 35 59 20 28
32 51 28 50 -5 0 -37 -20 -71 -44z"/>
<path d="M529 1119 c-20 -39 -23 -195 -5 -273 44 -187 177 -340 353 -406 393
-147 804 180 759 603 -4 36 -14 73 -22 84 -14 17 -15 16 -9 -12 3 -16 8 -70
11 -120 11 -163 -46 -305 -167 -420 -114 -107 -221 -150 -369 -149 -158 1
-282 50 -387 153 -130 126 -190 325 -152 501 12 57 7 74 -12 39z"/>
<path d="M400 1109 c-41 -11 -78 -26 -83 -32 -13 -19 0 -246 18 -312 73 -271
307 -488 589 -546 116 -24 187 -24 306 1 280 57 512 279 585 558 20 78 30 205
21 265 l-7 46 -95 22 c-52 12 -97 20 -99 17 -3 -2 0 -20 5 -39 15 -51 12 -197
-5 -263 -25 -96 -82 -194 -155 -266 -278 -276 -743 -201 -917 147 -23 45 -47
108 -53 139 -12 59 -9 234 5 267 10 23 -17 22 -115 -4z"/>
<path d="M4139 1103 c-9 -10 -42 -92 -74 -182 -32 -91 -67 -173 -77 -183 -17
-17 -17 -18 12 -18 22 0 28 4 24 15 -5 13 30 129 43 145 3 3 10 -2 16 -10 7
-9 31 -16 56 -17 l44 -2 -28 29 c-16 17 -39 30 -52 30 -13 0 -23 3 -23 8 0 17
39 107 46 105 11 -3 55 -122 59 -161 2 -19 10 -41 19 -50 23 -26 31 -73 15
-83 -9 -5 12 -9 55 -9 58 0 67 2 53 13 -9 6 -47 95 -85 196 -37 102 -73 186
-78 188 -6 2 -17 -4 -25 -14z"/>
<path d="M2700 1103 l-25 -4 3 -164 c2 -105 -1 -172 -8 -185 -12 -22 -49 -27
-69 -7 -11 10 -13 9 -9 -3 7 -25 99 -26 129 -1 23 19 24 23 27 195 3 141 1
176 -10 175 -7 -1 -24 -4 -38 -6z"/>
<path d="M4730 1103 l-25 -4 3 -177 c3 -159 2 -178 -14 -189 -15 -11 -7 -13
52 -12 38 1 61 3 52 6 -16 4 -18 22 -18 194 0 145 -3 189 -12 188 -7 -1 -24
-4 -38 -6z"/>
<path d="M2248 1088 c8 -8 12 -63 12 -180 0 -148 -2 -168 -17 -177 -14 -8 -2
-10 47 -10 49 0 61 2 48 10 -28 16 -25 99 5 127 50 47 107 17 107 -56 0 -49
26 -82 65 -82 22 0 24 2 15 26 -6 14 -10 43 -10 65 0 53 -13 74 -52 88 -31 11
-32 13 -13 23 41 22 65 52 65 80 0 44 -15 64 -60 82 -50 20 -232 24 -212 4z
m179 -30 c25 -23 30 -66 13 -98 -11 -21 -92 -80 -109 -80 -7 0 -11 33 -11 90
0 74 3 91 18 99 28 17 64 12 89 -11z"/>
<path d="M2990 1078 c-96 -65 -116 -225 -39 -312 37 -43 67 -50 172 -41 l83 7
10 34 c10 31 9 34 -11 34 -12 0 -39 -13 -61 -30 -52 -40 -86 -39 -118 3 -52
68 -58 201 -13 269 30 43 67 48 112 14 18 -14 36 -26 39 -26 5 0 36 54 36 62
0 2 -39 4 -87 6 -79 3 -92 1 -123 -20z"/>
<path d="M3288 1088 c8 -8 12 -63 12 -180 0 -148 -2 -168 -17 -177 -14 -8 -3
-10 45 -11 58 0 62 1 48 16 -25 25 -21 96 7 122 50 47 107 17 107 -56 0 -49
26 -82 65 -82 22 0 24 2 15 26 -6 14 -10 43 -10 65 0 53 -13 74 -52 88 -31 11
-32 13 -13 23 90 49 86 132 -8 167 -41 16 -215 15 -199 -1z m181 -34 c23 -29
27 -65 10 -95 -10 -19 -94 -79 -111 -79 -13 0 -10 174 4 188 22 22 75 14 97
-14z"/>
<path d="M3658 1088 c8 -8 12 -63 12 -180 0 -148 -2 -168 -17 -177 -13 -7 21
-10 119 -11 75 0 139 3 141 8 2 4 7 20 11 37 l8 30 -22 -28 c-20 -25 -27 -27
-91 -27 l-69 0 0 79 c0 86 3 91 63 91 25 0 36 7 49 30 17 30 17 30 -8 30 -32
0 -80 -25 -93 -47 -8 -13 -10 5 -11 70 l0 87 28 0 c15 0 42 -9 60 -20 18 -11
38 -20 46 -20 10 0 36 39 36 55 0 3 -62 5 -137 5 -107 0 -134 -3 -125 -12z"/>
<path d="M4300 1080 c0 -28 23 -34 59 -16 16 9 39 16 51 16 19 0 20 -5 20
-170 0 -150 -2 -170 -17 -179 -14 -8 -2 -10 47 -10 36 0 59 3 53 6 -10 3 -13
49 -13 179 0 193 -2 188 67 159 47 -20 50 -19 55 10 l5 25 -163 0 c-158 0
-164 -1 -164 -20z"/>
<path d="M4950 1093 c-70 -28 -111 -96 -111 -181 -1 -126 62 -192 183 -192 68
0 125 32 156 85 19 34 22 51 20 117 -2 59 -8 83 -24 104 -39 53 -70 68 -142
71 -37 1 -74 0 -82 -4z m120 -51 c42 -42 60 -92 60 -170 0 -107 -60 -158 -138
-118 -62 32 -104 188 -72 266 29 70 93 80 150 22z"/>
<path d="M5268 1089 c8 -9 12 -60 12 -181 0 -148 -2 -168 -17 -177 -14 -8 -10
-10 22 -10 32 0 36 2 23 10 -16 9 -18 28 -18 164 0 85 3 155 8 155 4 0 29 -30
57 -68 27 -37 81 -109 119 -161 l69 -94 15 28 c11 22 11 32 2 49 -7 14 -10 69
-8 159 3 116 1 137 -12 137 -13 0 -15 -19 -12 -122 4 -143 12 -144 -103 10
-79 106 -81 107 -125 110 -36 3 -43 1 -32 -9z"/>
<path d="M5671 1072 c-24 -24 -31 -39 -31 -70 0 -33 6 -45 35 -71 20 -17 53
-40 74 -51 40 -20 81 -63 81 -85 0 -19 -35 -45 -61 -45 -14 0 -40 11 -59 25
-40 29 -56 31 -63 8 -2 -10 -8 -25 -11 -34 -7 -17 0 -18 142 -22 60 -2 65 0
93 31 56 63 35 110 -86 192 -78 52 -91 70 -75 101 15 27 62 24 116 -7 41 -24
44 -24 44 -7 0 10 5 24 12 31 6 6 10 14 7 16 -3 3 -46 8 -96 12 l-92 7 -30
-31z"/>
<path d="M283 1064 c-3 -8 -3 -70 0 -137 10 -221 76 -369 236 -527 80 -80 111
-103 191 -143 142 -71 234 -91 395 -85 112 4 142 9 217 35 258 90 453 298 524
558 19 72 31 299 16 309 -6 4 -10 -33 -10 -107 -1 -232 -81 -411 -257 -575
-130 -122 -291 -189 -475 -199 -319 -17 -600 147 -744 435 -54 107 -77 206
-79 340 -1 61 -3 112 -5 112 -1 0 -5 -7 -9 -16z"/>
<path d="M945 860 l0 -180 36 0 36 0 -5 50 c-4 43 -1 55 18 75 48 51 110 20
110 -55 0 -43 16 -67 51 -75 l26 -6 -5 58 c-6 79 -17 103 -52 116 -17 6 -30
14 -30 17 0 3 14 13 30 22 39 22 54 61 38 96 -21 44 -71 62 -168 62 l-85 0 0
-180z m174 134 c39 -49 23 -91 -53 -143 -24 -17 -46 -27 -50 -24 -11 12 -6
169 6 181 22 22 75 14 97 -14z"/>
</g>
</svg>
